<mxfile host="app.diagrams.net" modified="2021-05-26T10:20:22.582Z" agent="5.0 (Windows NT 10.0; Win64; x64) AppleWebKit/537.36 (KHTML, like Gecko) Chrome/90.0.4430.212 Safari/537.36 Edg/90.0.818.66" etag="-_qjBdzsUqcM_igw1SPU" version="14.7.1" type="github">
  <diagram id="R2lEEEUBdFMjLlhIrx00" name="Page-1">
    <mxGraphModel dx="1185" dy="643" grid="1" gridSize="10" guides="1" tooltips="1" connect="1" arrows="1" fold="1" page="1" pageScale="1" pageWidth="850" pageHeight="1100" math="0" shadow="0" extFonts="Permanent Marker^https://fonts.googleapis.com/css?family=Permanent+Marker">
      <root>
        <mxCell id="0" />
        <mxCell id="1" parent="0" />
        <mxCell id="I6BKjvDMnGDnvf068UKQ-4" value="LLVM (ST Generator)&lt;br&gt;C++" style="rounded=0;whiteSpace=wrap;html=1;fillColor=#dae8fc;strokeColor=#6c8ebf;" vertex="1" parent="1">
          <mxGeometry x="70" y="10" width="120" height="60" as="geometry" />
        </mxCell>
        <mxCell id="I6BKjvDMnGDnvf068UKQ-7" value="Global ST (JSON)" style="shape=cylinder3;whiteSpace=wrap;html=1;boundedLbl=1;backgroundOutline=1;size=15;fillColor=#d5e8d4;strokeColor=#82b366;" vertex="1" parent="1">
          <mxGeometry x="95" y="120" width="70" height="90" as="geometry" />
        </mxCell>
        <mxCell id="I6BKjvDMnGDnvf068UKQ-9" value="" style="endArrow=classic;html=1;exitX=0.5;exitY=1;exitDx=0;exitDy=0;" edge="1" parent="1" source="I6BKjvDMnGDnvf068UKQ-4" target="I6BKjvDMnGDnvf068UKQ-7">
          <mxGeometry width="50" height="50" relative="1" as="geometry">
            <mxPoint x="150" y="150" as="sourcePoint" />
            <mxPoint x="200" y="100" as="targetPoint" />
          </mxGeometry>
        </mxCell>
        <mxCell id="I6BKjvDMnGDnvf068UKQ-10" value="Code Smell Config (JSON)" style="shape=cylinder3;whiteSpace=wrap;html=1;boundedLbl=1;backgroundOutline=1;size=15;fillColor=#d5e8d4;strokeColor=#82b366;" vertex="1" parent="1">
          <mxGeometry x="230" y="120" width="70" height="90" as="geometry" />
        </mxCell>
        <mxCell id="I6BKjvDMnGDnvf068UKQ-11" value="Code Smell Detector&lt;br&gt;Node.JS" style="rounded=0;whiteSpace=wrap;html=1;fillColor=#dae8fc;strokeColor=#6c8ebf;" vertex="1" parent="1">
          <mxGeometry x="140" y="250" width="120" height="60" as="geometry" />
        </mxCell>
        <mxCell id="I6BKjvDMnGDnvf068UKQ-12" value="" style="endArrow=classic;html=1;exitX=0.5;exitY=1;exitDx=0;exitDy=0;exitPerimeter=0;" edge="1" parent="1" source="I6BKjvDMnGDnvf068UKQ-7" target="I6BKjvDMnGDnvf068UKQ-11">
          <mxGeometry width="50" height="50" relative="1" as="geometry">
            <mxPoint x="140" y="230" as="sourcePoint" />
            <mxPoint x="240" y="180" as="targetPoint" />
          </mxGeometry>
        </mxCell>
        <mxCell id="I6BKjvDMnGDnvf068UKQ-13" value="" style="endArrow=classic;html=1;exitX=0.5;exitY=1;exitDx=0;exitDy=0;exitPerimeter=0;entryX=0.75;entryY=0;entryDx=0;entryDy=0;" edge="1" parent="1" source="I6BKjvDMnGDnvf068UKQ-10" target="I6BKjvDMnGDnvf068UKQ-11">
          <mxGeometry width="50" height="50" relative="1" as="geometry">
            <mxPoint x="190" y="230" as="sourcePoint" />
            <mxPoint x="240" y="180" as="targetPoint" />
          </mxGeometry>
        </mxCell>
        <mxCell id="I6BKjvDMnGDnvf068UKQ-14" value="smells:&lt;br&gt;[&amp;nbsp;&lt;br&gt;&amp;nbsp; &amp;nbsp; &amp;nbsp; {&lt;br&gt;&amp;nbsp; &amp;nbsp; &amp;nbsp; &amp;nbsp; &amp;nbsp; &amp;nbsp; name:&amp;nbsp; &amp;nbsp; &amp;nbsp; &amp;nbsp; &amp;nbsp; &amp;nbsp; &quot;name of smell&quot;,&lt;br&gt;&amp;nbsp; &amp;nbsp; &amp;nbsp; &amp;nbsp; &amp;nbsp; &amp;nbsp; file:&amp;nbsp; &amp;nbsp; &amp;nbsp; &amp;nbsp; &amp;nbsp; &amp;nbsp; &amp;nbsp; &amp;nbsp; &amp;nbsp;&quot;path to smell callback&quot;,&lt;br&gt;&amp;nbsp; &amp;nbsp; &amp;nbsp; &amp;nbsp; &amp;nbsp; &amp;nbsp; description:&amp;nbsp; &amp;nbsp; &quot;short description&quot;,&lt;br&gt;&amp;nbsp; &amp;nbsp; &amp;nbsp; &amp;nbsp; &amp;nbsp; &amp;nbsp; args:&amp;nbsp;&lt;br&gt;&amp;nbsp; &amp;nbsp; &amp;nbsp; &amp;nbsp; &amp;nbsp; &amp;nbsp; {&lt;br&gt;&amp;nbsp; &amp;nbsp; &amp;nbsp; &amp;nbsp; &amp;nbsp; &amp;nbsp; &amp;nbsp; &amp;nbsp; &amp;nbsp; &amp;nbsp; arg1: ...,&lt;br&gt;&amp;nbsp; &amp;nbsp; &amp;nbsp; &amp;nbsp; &amp;nbsp; &amp;nbsp; &amp;nbsp; &amp;nbsp; &amp;nbsp; &amp;nbsp; arg2: ...&lt;br&gt;&amp;nbsp; &amp;nbsp; &amp;nbsp; &amp;nbsp; &amp;nbsp; &amp;nbsp; }&lt;br&gt;&amp;nbsp; &amp;nbsp; &amp;nbsp; },&lt;br&gt;&amp;nbsp; &amp;nbsp; &amp;nbsp; ...&lt;br&gt;],&lt;br&gt;" style="rounded=0;whiteSpace=wrap;html=1;align=left;fillColor=#ffe6cc;strokeColor=#d79b00;" vertex="1" parent="1">
          <mxGeometry x="340" y="70" width="330" height="200" as="geometry" />
        </mxCell>
        <mxCell id="I6BKjvDMnGDnvf068UKQ-15" value="" style="endArrow=none;dashed=1;html=1;dashPattern=1 3;strokeWidth=2;exitX=1;exitY=0;exitDx=0;exitDy=60;exitPerimeter=0;entryX=0;entryY=0.5;entryDx=0;entryDy=0;" edge="1" parent="1" source="I6BKjvDMnGDnvf068UKQ-10" target="I6BKjvDMnGDnvf068UKQ-14">
          <mxGeometry width="50" height="50" relative="1" as="geometry">
            <mxPoint x="310" y="190" as="sourcePoint" />
            <mxPoint x="360" y="140" as="targetPoint" />
          </mxGeometry>
        </mxCell>
        <mxCell id="I6BKjvDMnGDnvf068UKQ-18" value="Front-end&lt;br&gt;&amp;nbsp;Electron JS" style="rounded=0;whiteSpace=wrap;html=1;fillColor=#dae8fc;strokeColor=#6c8ebf;" vertex="1" parent="1">
          <mxGeometry x="130" y="370" width="140" height="60" as="geometry" />
        </mxCell>
        <mxCell id="I6BKjvDMnGDnvf068UKQ-19" value="" style="endArrow=classic;html=1;entryX=0.643;entryY=0.994;entryDx=0;entryDy=0;entryPerimeter=0;exitX=0.817;exitY=0.006;exitDx=0;exitDy=0;exitPerimeter=0;" edge="1" parent="1" source="I6BKjvDMnGDnvf068UKQ-11" target="I6BKjvDMnGDnvf068UKQ-10">
          <mxGeometry width="50" height="50" relative="1" as="geometry">
            <mxPoint x="240" y="250" as="sourcePoint" />
            <mxPoint x="280" y="220" as="targetPoint" />
          </mxGeometry>
        </mxCell>
        <mxCell id="I6BKjvDMnGDnvf068UKQ-20" value="" style="endArrow=classic;html=1;entryX=0.5;entryY=0;entryDx=0;entryDy=0;exitX=0.5;exitY=1;exitDx=0;exitDy=0;" edge="1" parent="1" source="I6BKjvDMnGDnvf068UKQ-11" target="I6BKjvDMnGDnvf068UKQ-18">
          <mxGeometry width="50" height="50" relative="1" as="geometry">
            <mxPoint x="360" y="220" as="sourcePoint" />
            <mxPoint x="410" y="170" as="targetPoint" />
          </mxGeometry>
        </mxCell>
        <mxCell id="I6BKjvDMnGDnvf068UKQ-21" value="Code Smell Visualizer" style="rounded=0;whiteSpace=wrap;html=1;fillColor=#dae8fc;strokeColor=#6c8ebf;" vertex="1" parent="1">
          <mxGeometry x="40" y="470" width="80" height="60" as="geometry" />
        </mxCell>
        <mxCell id="I6BKjvDMnGDnvf068UKQ-23" value="" style="endArrow=classic;html=1;entryX=0.5;entryY=0;entryDx=0;entryDy=0;exitX=0;exitY=0.5;exitDx=0;exitDy=0;" edge="1" parent="1" source="I6BKjvDMnGDnvf068UKQ-18" target="I6BKjvDMnGDnvf068UKQ-21">
          <mxGeometry width="50" height="50" relative="1" as="geometry">
            <mxPoint x="340" y="410" as="sourcePoint" />
            <mxPoint x="390" y="360" as="targetPoint" />
            <Array as="points">
              <mxPoint x="80" y="400" />
            </Array>
          </mxGeometry>
        </mxCell>
        <mxCell id="I6BKjvDMnGDnvf068UKQ-25" value="Smell Detector Interface" style="rounded=0;whiteSpace=wrap;html=1;fillColor=#dae8fc;strokeColor=#6c8ebf;" vertex="1" parent="1">
          <mxGeometry x="280" y="470" width="90" height="60" as="geometry" />
        </mxCell>
        <mxCell id="I6BKjvDMnGDnvf068UKQ-26" value="" style="endArrow=classic;html=1;exitX=1;exitY=0.5;exitDx=0;exitDy=0;entryX=0.5;entryY=0;entryDx=0;entryDy=0;" edge="1" parent="1" source="I6BKjvDMnGDnvf068UKQ-18" target="I6BKjvDMnGDnvf068UKQ-25">
          <mxGeometry width="50" height="50" relative="1" as="geometry">
            <mxPoint x="340" y="450" as="sourcePoint" />
            <mxPoint x="390" y="400" as="targetPoint" />
            <Array as="points">
              <mxPoint x="325" y="400" />
            </Array>
          </mxGeometry>
        </mxCell>
        <mxCell id="I6BKjvDMnGDnvf068UKQ-27" value="" style="endArrow=classic;html=1;exitX=0.671;exitY=-0.033;exitDx=0;exitDy=0;exitPerimeter=0;entryX=1;entryY=0.5;entryDx=0;entryDy=0;" edge="1" parent="1" source="I6BKjvDMnGDnvf068UKQ-25" target="I6BKjvDMnGDnvf068UKQ-11">
          <mxGeometry width="50" height="50" relative="1" as="geometry">
            <mxPoint x="330" y="450" as="sourcePoint" />
            <mxPoint x="380" y="400" as="targetPoint" />
            <Array as="points">
              <mxPoint x="340" y="360" />
            </Array>
          </mxGeometry>
        </mxCell>
      </root>
    </mxGraphModel>
  </diagram>
</mxfile>
